<svg width="17" height="18" viewBox="0 0 17 18" fill="none" xmlns="http://www.w3.org/2000/svg">
<g clip-path="url(#clip0_1_1470)">
<path d="M11.74 0.799999C12.62 0.839999 13.22 0.979999 13.75 1.19C14.3066 1.39411 14.8093 1.72243 15.22 2.15C15.69 2.61 15.97 3.07 16.18 3.62C16.39 4.15 16.53 4.75 16.57 5.64C16.61 6.52 16.62 6.8 16.62 9.06C16.62 11.32 16.61 11.6 16.57 12.49C16.5569 13.1807 16.4249 13.864 16.18 14.51C15.9734 15.0654 15.6454 15.5676 15.22 15.98C14.76 16.44 14.3 16.73 13.75 16.94C13.22 17.14 12.62 17.28 11.74 17.32C10.85 17.37 10.57 17.37 8.31 17.37C6.05 17.37 5.77 17.37 4.88 17.32C4.19366 17.3048 3.51453 17.1764 2.87 16.94C2.31457 16.7326 1.81016 16.4083 1.39093 15.989C0.971695 15.5698 0.647424 15.0654 0.440002 14.51C0.195059 13.864 0.0631184 13.1807 0.0499878 12.49C0.00998779 11.6 0 11.32 0 9.06C0 6.8 0.00998779 6.52 0.0499878 5.64C0.0899878 4.75 0.230002 4.15 0.440002 3.62C0.644269 3.06588 0.968713 2.56386 1.39001 2.15C1.86001 1.68 2.32 1.4 2.87 1.19C3.51243 0.944831 4.1925 0.812878 4.88 0.799999C5.77 0.759999 6.05 0.75 8.31 0.75C10.57 0.75 10.85 0.759999 11.74 0.799999ZM8.31 2.25C6.09 2.25 5.83001 2.26 4.95001 2.3C4.14001 2.33 3.69997 2.47 3.40997 2.58C3.04744 2.71242 2.71822 2.92242 2.44531 3.19533C2.1724 3.46824 1.96243 3.79747 1.83002 4.16C1.72002 4.45 1.57999 4.89 1.54999 5.7C1.50042 6.81927 1.48376 7.93975 1.5 9.06C1.5 11.28 1.50999 11.54 1.54999 12.42C1.57999 13.23 1.72002 13.67 1.83002 13.96C1.98002 14.35 2.16001 14.63 2.45001 14.92C2.74001 15.21 3.01997 15.39 3.40997 15.54C3.69997 15.66 4.14001 15.79 4.95001 15.83C5.83001 15.87 6.09 15.88 8.31 15.88C10.53 15.88 10.79 15.87 11.67 15.83C12.1964 15.8252 12.7179 15.727 13.21 15.54C13.6 15.39 13.88 15.21 14.17 14.92C14.46 14.63 14.64 14.35 14.79 13.96C14.9 13.67 15.04 13.23 15.07 12.42C15.11 11.54 15.12 11.28 15.12 9.06C15.12 6.84 15.11 6.58 15.07 5.7C15.0669 5.17429 14.9722 4.65314 14.79 4.16C14.6576 3.79747 14.4476 3.46824 14.1747 3.19533C13.9018 2.92242 13.5726 2.71242 13.21 2.58C12.7169 2.39782 12.1957 2.30306 11.67 2.3C10.5507 2.25043 9.43025 2.23376 8.31 2.25Z" fill="#1C1C1C"/>
<path d="M8.34997 11.93C7.60074 11.93 6.8822 11.6324 6.35241 11.1026C5.82262 10.5728 5.52502 9.85422 5.52502 9.10498C5.52502 8.35575 5.82262 7.6372 6.35241 7.10741C6.8822 6.57762 7.60074 6.27998 8.34997 6.27998C8.73509 6.25706 9.12085 6.31312 9.48352 6.44473C9.84618 6.57633 10.1781 6.78071 10.4589 7.04528C10.7397 7.30986 10.9634 7.62905 11.1163 7.98325C11.2693 8.33745 11.3481 8.71918 11.3481 9.10498C11.3481 9.49079 11.2693 9.87252 11.1163 10.2267C10.9634 10.5809 10.7397 10.9001 10.4589 11.1647C10.1781 11.4293 9.84618 11.6336 9.48352 11.7652C9.12085 11.8968 8.73509 11.9529 8.34997 11.93ZM4 9.09998C3.97174 9.68945 4.06342 10.2785 4.26953 10.8315C4.47564 11.3845 4.79191 11.8898 5.19909 12.317C5.60627 12.7442 6.09589 13.0842 6.63836 13.3166C7.18084 13.5489 7.76484 13.6687 8.35498 13.6687C8.94512 13.6687 9.52912 13.5489 10.0716 13.3166C10.6141 13.0842 11.1037 12.7442 11.5109 12.317C11.9181 11.8898 12.2343 11.3845 12.4404 10.8315C12.6465 10.2785 12.7383 9.68945 12.71 9.09998C12.6564 7.98106 12.1741 6.92572 11.3633 6.15281C10.5524 5.3799 9.47518 4.94873 8.35498 4.94873C7.23477 4.94873 6.15758 5.3799 5.34674 6.15281C4.53589 6.92572 4.05363 7.98106 4 9.09998Z" fill="#1C1C1C"/>
<path d="M14.37 5.94C14.3674 6.25309 14.2426 6.55278 14.0222 6.7751C13.8017 6.99743 13.5031 7.12479 13.19 7.13C12.9009 7.09245 12.6354 6.95097 12.4431 6.73199C12.2507 6.513 12.1446 6.23148 12.1446 5.94C12.1446 5.64852 12.2507 5.367 12.4431 5.14801C12.6354 4.92903 12.9009 4.78755 13.19 4.75C13.84 4.75 14.37 5.28 14.37 5.94Z" fill="#1C1C1C"/>
</g>
<defs>
<clipPath id="clip0_1_1470">
<rect width="17" height="17" fill="white" transform="translate(0 0.75)"/>
</clipPath>
</defs>
</svg>
