<svg width="18" height="20" viewBox="0 0 18 20" fill="none" xmlns="http://www.w3.org/2000/svg">
<g clip-path="url(#clip0_1_1483)">
<path d="M0.27002 7.53H3.67999V19.17H0.27002V7.53ZM3.96002 3.85C3.96002 5 3.06998 5.95 1.97998 5.95C0.87998 5.95 0 5 0 3.85C0 2.69 0.87998 1.75 1.97998 1.75C3.06998 1.75 3.96002 2.69 3.96002 3.85Z" fill="#1C1C1C"/>
<path d="M6 7.03002H9.40002V8.62002H9.45001C9.78825 8.03104 10.2809 7.54559 10.8748 7.21604C11.4686 6.88649 12.1413 6.72536 12.82 6.75002C16.41 6.75002 17.08 9.15002 17.08 12.27V18.63H13.53V12.99C13.53 11.64 13.51 9.91002 11.69 9.91002C9.83 9.91002 9.56 11.38 9.56 12.89V18.63H6.01001L6 7.03002Z" fill="#1C1C1C"/>
</g>
<defs>
<clipPath id="clip0_1_1483">
<rect width="18" height="19" fill="white" transform="translate(0 0.75)"/>
</clipPath>
</defs>
</svg>
