<svg width="19" height="17" viewBox="0 0 19 17" fill="none" xmlns="http://www.w3.org/2000/svg">
<g clip-path="url(#clip0_1_1467)">
<path d="M5.84998 15.7898C12.87 15.7898 16.71 9.9998 16.71 4.9898L16.7 4.4898C17.4459 3.95256 18.0922 3.28927 18.61 2.5298C17.91 2.8298 17.17 3.0398 16.41 3.1198C17.21 2.6498 17.81 1.8998 18.09 1.0198C17.35 1.4598 16.52 1.7798 15.67 1.9498C14.9751 1.21351 14.017 0.78229 13.0051 0.750434C11.9932 0.718577 11.0098 1.08867 10.27 1.7798C9.78395 2.2349 9.42632 2.81004 9.23322 3.44729C9.04011 4.08455 9.01829 4.76144 9.16998 5.4098C7.65445 5.33558 6.17123 4.94489 4.8158 4.26287C3.46036 3.58084 2.26274 2.6226 1.29999 1.4498C0.810175 2.28361 0.659528 3.27377 0.87915 4.21554C1.09877 5.15731 1.67186 5.97867 2.47998 6.5098C1.87051 6.49612 1.27346 6.33485 0.73999 6.0398V6.0798C0.743598 6.96006 1.05114 7.81205 1.61053 8.49171C2.16993 9.17137 2.94687 9.63698 3.81 9.8098C3.25 9.9598 2.66002 9.9798 2.08002 9.8698C2.32968 10.6246 2.80689 11.2836 3.44611 11.7563C4.08532 12.229 4.85521 12.4922 5.65002 12.5098C4.046 13.7549 2.01644 14.3189 0 14.0798C1.74539 15.1996 3.77625 15.7933 5.84998 15.7898Z" fill="#1C1C1C"/>
</g>
<defs>
<clipPath id="clip0_1_1467">
<rect width="19" height="16" fill="white" transform="translate(0 0.75)"/>
</clipPath>
</defs>
</svg>
