<svg width="22" height="17" viewBox="0 0 22 17" fill="none" xmlns="http://www.w3.org/2000/svg">
<g clip-path="url(#clip0_1_1480)">
<path d="M22.37 8.46V10.08C22.37 11.81 22.15 13.54 22.15 13.54C22.15 13.54 21.95 15.01 21.31 15.66C20.49 16.51 19.58 16.52 19.16 16.57C16.17 16.79 11.68 16.79 11.68 16.79C11.68 16.79 6.12998 16.74 4.41998 16.58C3.93998 16.49 2.88 16.51 2.06 15.66C1.42 15.01 1.21002 13.54 1.21002 13.54C1.21002 13.54 1 11.81 1 10.08V8.46C1 6.73 1.21002 4.99 1.21002 4.99C1.21002 4.99 1.42 3.52 2.06 2.87C2.88 2.02 3.79001 2.02 4.20001 1.97C7.19001 1.75 11.68 1.75 11.68 1.75H11.69C11.69 1.75 16.17 1.75 19.16 1.97C19.58 2.02 20.49 2.02 21.31 2.87C21.95 3.52 22.15 4.99 22.15 4.99C22.15 4.99 22.37 6.73 22.37 8.46ZM16.04 9.28L9.71002 6.5V12.04L16.04 9.28Z" fill="#1C1C1C"/>
</g>
<defs>
<clipPath id="clip0_1_1480">
<rect width="22" height="16" fill="white" transform="translate(0 0.75)"/>
</clipPath>
</defs>
</svg>
